<svg width="122" height="122" viewBox="0 0 122 122" fill="none" xmlns="http://www.w3.org/2000/svg">
<circle cx="61" cy="61" r="61" fill="white"/>
<path d="M29.7767 91.2C28.3047 91.2 26.5447 90.688 24.4967 89.6639C22.5127 88.576 20.7527 87.296 19.2167 85.824C17.7447 84.352 17.0087 83.136 17.0087 82.176C16.9447 81.152 17.2327 79.0079 17.8727 75.7439C18.5767 72.416 19.0247 70.272 19.2167 69.312C19.4727 68.032 19.9527 65.696 20.6567 62.304C21.3607 58.848 21.9367 55.648 22.3847 52.704L23.1527 48.192C24.3687 41.024 25.4887 35.2 26.5127 30.72C27.6007 26.24 28.6887 24 29.7767 24C30.8647 24 32.3367 24.448 34.1927 25.344C36.1127 26.24 37.9047 27.392 39.5687 28.8C41.2327 30.144 42.3527 31.424 42.9287 32.64C43.9527 34.944 45.2967 39.872 46.9607 47.424C48.1127 52.672 48.9767 56.288 49.5527 58.272C52.3047 54.112 55.8247 47.744 60.1127 39.168C62.8647 33.728 64.9447 29.856 66.3527 27.552C67.8247 25.184 69.1367 24 70.2887 24C71.5047 24 73.1367 24.544 75.1847 25.632C77.2967 26.72 79.1207 28 80.6567 29.472C82.2567 30.944 83.0567 32.224 83.0567 33.312C83.0567 34.208 82.6727 36.736 81.9047 40.896C81.1367 44.992 80.6567 47.552 80.4647 48.576L77.9687 62.112C77.3287 65.888 76.6567 70.8479 75.9527 76.992C75.3127 82.24 74.7367 85.92 74.2247 88.032C73.7767 90.144 73.0407 91.2 72.0167 91.2C70.5447 91.2 68.7847 90.688 66.7367 89.6639C64.7527 88.576 62.9927 87.296 61.4567 85.824C59.9847 84.352 59.2487 83.136 59.2487 82.176C59.1847 81.344 59.4087 79.584 59.9207 76.896C60.4967 74.144 61.1367 71.04 61.8407 67.584C62.4167 64.832 62.7367 63.264 62.8007 62.88L66.2567 52.224L64.9127 51.744L63.9527 53.664C61.4567 58.784 59.4407 62.784 57.9047 65.664C56.4327 68.48 55.2167 70.496 54.2567 71.712C53.6167 72.48 52.4647 73.1199 50.8007 73.632C49.1367 74.0799 47.5047 74.304 45.9047 74.304C44.2407 74.304 43.1207 74.0159 42.5447 73.4399C41.9687 72.9279 41.4567 71.872 41.0087 70.272C40.6247 68.608 40.0807 66.048 39.3767 62.592C39.2487 61.888 38.8967 60.192 38.3207 57.504C37.7447 54.752 37.1047 52.256 36.4007 50.016L35.7287 62.112C35.0887 65.888 34.4167 70.8479 33.7127 76.992C33.0727 82.24 32.4967 85.92 31.9847 88.032C31.5367 90.144 30.8007 91.2 29.7767 91.2Z" fill="#282B2A"/>
<path d="M103.835 46.8092C103.864 47.2647 103.963 48.4175 104.134 50.2678C104.333 52.0897 104.433 53.6126 104.433 54.8366C104.433 56.4307 104.248 57.2847 103.878 57.3986C103.764 57.427 103.579 57.4413 103.323 57.4413C102.696 57.4413 101.914 57.2989 100.974 57.0143C100.063 56.7012 99.2378 56.3169 98.4977 55.8614C97.786 55.4059 97.3733 54.9647 97.2594 54.5377C97.1455 54.1107 97.0886 52.3174 97.0886 49.1577C94.0143 49.5277 91.9932 49.7555 91.0254 49.8409C90.2568 52.0897 89.3743 54.552 88.378 57.2278C87.6094 57.3986 86.8978 57.484 86.2431 57.484C85.1044 57.484 84.1366 57.2135 83.3395 56.6727C82.571 56.1034 82.0586 55.2494 81.8024 54.1107L82.6563 52.1893C85.7876 45.2151 88.4919 39.3654 90.7692 34.64C93.0749 29.9146 94.5694 27.552 95.2526 27.552C95.7934 27.552 96.5762 27.7512 97.601 28.1498C98.6542 28.5483 99.5936 29.0322 100.419 29.6015C101.273 30.1708 101.757 30.6832 101.871 31.1387C102.07 31.9357 102.341 33.601 102.682 36.1345C103.024 38.6679 103.294 41.116 103.493 43.4787L103.835 46.8092ZM96.9605 34.213C95.708 37.1735 94.4697 40.3474 93.2457 43.7349C94.5551 43.6495 95.8503 43.5214 97.1313 43.3506C97.1313 39.4223 97.0744 36.3764 96.9605 34.213Z" fill="#282B2A"/>
<path d="M102.346 87.8307C104.892 89.1332 106.061 90.85 105.854 92.9813C105.765 93.8102 105.247 94.6094 104.3 95.379C103.353 96.1487 102.139 96.7703 100.659 97.2439C99.2088 97.7471 97.6991 97.9987 96.1302 97.9987L95.1534 97.9543C93.7917 97.8655 92.6077 97.0811 91.6012 95.601C90.6244 94.121 89.8695 92.3893 89.3367 90.406C88.0047 90.0804 86.6282 89.444 85.2074 88.4967C83.7865 87.5495 82.5876 86.4986 81.6108 85.3442C80.6636 84.1601 80.1455 83.0945 80.0567 82.1472C79.9383 80.5192 80.2935 77.6331 81.1224 73.4889C81.9512 69.3151 82.7504 66.1774 83.5201 64.0757C84.2305 63.8685 84.8373 63.7353 85.3406 63.6761C85.8438 63.6169 86.4802 63.6021 87.2498 63.6317C87.2498 62.5068 87.5163 61.53 88.0491 60.7011C88.5819 59.8427 89.3811 59.2359 90.4468 58.8807C92.9333 58.8511 95.2422 59.3987 97.3735 60.5235C99.5048 61.6484 101.207 63.0988 102.48 64.8749C103.753 66.6214 104.404 68.3827 104.433 70.1587C104.493 73.5629 103.693 76.9818 102.036 80.4156C100.378 83.8197 97.8027 86.7355 94.3097 89.1628L95.0646 91.072C97.0479 90.6576 99.4752 89.5772 102.346 87.8307ZM98.2615 68.8711C97.3735 68.2791 96.2782 67.7906 94.9758 67.4058C93.6733 67.021 92.2377 66.8138 90.6688 66.7842C90.8168 67.169 90.9056 67.613 90.9352 68.1163C88.8927 72.5565 87.6199 76.7006 87.1166 80.5488C88.0343 80.5192 88.8779 80.8152 89.6475 81.4368C90.4468 82.0288 90.9796 82.7837 91.246 83.7013C93.2589 81.7476 94.8722 79.4239 96.0858 76.7302C97.2995 74.0069 98.0247 71.3872 98.2615 68.8711Z" fill="#282B2A"/>
</svg>
