<svg width="140" height="140" viewBox="0 0 140 140" fill="none" xmlns="http://www.w3.org/2000/svg">
<g clip-path="url(#clip0_497_1897)">
<path fill-rule="evenodd" clip-rule="evenodd" d="M70 119.991L0 55.0427H140L70 119.991Z" fill="#F4A24F"/>
<path fill-rule="evenodd" clip-rule="evenodd" d="M67.9758 1.59171C69.1636 0.657661 70.8364 0.657662 72.0242 1.59172L140 55.0427H0L67.9758 1.59171Z" fill="#F4A24F"/>
<path fill-rule="evenodd" clip-rule="evenodd" d="M14.5972 12.4311H116.578C119.477 12.4311 123.486 11.977 125.204 13.2289C126.798 14.3907 126.332 17.9531 126.332 20.6742V41.0161C126.287 65.2775 126.243 89.5415 126.199 113.808C126.177 119.812 126.155 125.817 126.133 131.823C126.133 134.415 126.511 137.632 125.204 138.936C123.924 140.213 121.127 139.933 118.569 139.933H19.0427C16.0514 139.933 13.2238 140.306 11.9432 138.537C11.0889 137.358 11.346 134.843 11.346 132.82C11.346 128.281 11.4124 123.706 11.4124 119.259C11.4345 101.8 11.4566 84.3386 11.4787 66.8756C11.5009 53.8253 11.523 40.7737 11.5451 27.7208V18.7464C11.5451 17.4222 11.3243 15.556 11.7441 14.5584C12.0848 13.7488 12.8594 13.0376 13.6683 12.697C13.9697 12.5701 14.3401 12.6022 14.5972 12.4311Z" fill="#FFEAB0"/>
<path fill-rule="evenodd" clip-rule="evenodd" d="M140 55.0427V136.725C140 138.534 138.534 140 136.725 140H3.27486C1.46621 140 0 138.534 0 136.725V55.0427H140ZM70 110.937L0 55.0427H140L70 110.937Z" fill="#F4A24F"/>
<path fill-rule="evenodd" clip-rule="evenodd" d="M68.2627 77.2696C69.3254 76.6046 70.6746 76.6046 71.7373 77.2696L140 119.991H0L68.2627 77.2696ZM0 120.057H140V136.725C140 138.534 138.534 140 136.725 140H3.27486C1.46621 140 0 138.534 0 136.725V120.057Z" fill="#FFA64C"/>
<path d="M62.47 61.07V47.93H64.99V61.07H62.47ZM57.01 55.7V53.33H70.45V55.7H57.01ZM76.9136 65V45.2L78.2036 46.61H72.1736V44H79.8836V65H76.9136Z" fill="#FFA64C"/>
</g>
<defs>
<clipPath id="clip0_497_1897">
<rect width="140" height="140" fill="white"/>
</clipPath>
</defs>
</svg>
